<?xml version="1.0" encoding="UTF-8"?>
<svg id="Layer_1" data-name="Layer 1" xmlns="http://www.w3.org/2000/svg" viewBox="0 0 200 200">
  <defs>
    <style>
      .cls-1 {
        fill: #023e8a;
      }

      .cls-2 {
        fill: #fff;
      }

      .cls-3 {
        fill: #469dcc;
      }
    </style>
  </defs>
  <rect class="cls-1" width="200" height="200"/>
  <g>
    <path class="cls-3" d="M85.65,149.47c1.21-1.21,2.64-2.39,3.85-3.76,4.01-4.45,7-9.6,8.53-15.44,1.95-7.63.26-14.68-4.43-20.85-2.39-3.18-4.94-6.19-6.72-9.6-2.64-5.24-4.36-10.64-3.85-16.65.42-7.79,3.22-14.42,8.6-19.9,4.43-4.64,10.16-8.07,16.12-10.97,8.6-4.03,17.9-6.61,27.46-7.79,4.59-.6,9.39-.86,14.14-1.02,5.5-.19,11.13-.19,16.67-.19h.77c-3.15,21.03-6.38,41.72-9.53,62.63-1.62-.44-2.99-.86-4.36-1.21-2.81-.79-5.61-1.65-8.53-2.39-.58-.16-.86-.44-.77-1.21,1.02-6.01,1.95-12.01,2.81-18.02,1.02-6.61,2.06-13.19,3.15-19.9.26-1.65.42-3.25.77-4.99v-.6c-1.62,0-3.15-.16-4.59,0-5.61.28-11.34,1.02-16.79,2.39-8.77,2.06-16.97,5.4-24.3,10.64-4.01,2.83-6.56,6.77-7.33,11.66-.42,3.43.26,6.77,1.79,9.88,1.37,2.83,3.41,5.4,5.38,7.79,4.36,5.4,7.33,11.59,8.37,18.62.77,4.64.42,9.44-.58,14.08,0,.16,0,.44-.16.79,5.61-1.97,11.52-3.43,17.39-4.2,1.37,4.64,2.57,9.18,3.85,13.82-1.44.28-2.99.44-4.43.79-9.21,1.65-17.9,4.64-25.65,9.88-1.44,1.02-3.15,1.97-4.78,2.83-.26.16-.58.16-.86,0-4.15-2.34-7.91-4.66-11.99-7.14Z"/>
    <path class="cls-2" d="M56.57,128.46c8.37.28,16.12,1.65,23.86,4.03,2.64.86,5.38,1.97,8.37,3.01-1.21,1.81-2.23,3.43-3.41,4.82-1.95,2.23-4.01,4.2-6.14,6.26-.16.16-.58.16-.86.16-7-2.23-14.14-3.76-21.5-3.87-3.41-.16-6.72.16-10.16.28h-1.62c-6.1-33.16-10.97-66.43-16.07-99.9h15.93c13.38.16,26.5,2.06,39.05,7.21,2.57,1.02,5.03,2.23,7.58,3.43-1.95,1.81-3.73,3.43-5.38,5.24-1.62,1.81-3.15,3.76-4.59,5.84-5.52-2.57-11.52-4.38-17.39-5.57-6.14-1.21-12.2-1.81-18.57-1.97,3.39,23.81,7.17,47.49,10.9,71Z"/>
    <path class="cls-2" d="M170.61,116.8c-4.36,2.67-8.6,5.24-12.78,7.79,4.36,4.38,8.77,8.83,13.12,13.19-3.22,3.01-6.24,6.01-9.39,9.18-4.36-4.38-8.6-8.65-13.12-13.19-2.57,4.38-5.03,8.58-7.74,12.87-4.01-14.08-7.93-27.9-11.92-41.95,14.05,3.94,27.85,8.07,41.83,12.1Z"/>
  </g>
</svg>
